<svg width="72" height="20" viewBox="0 0 72 20" fill="none" xmlns="http://www.w3.org/2000/svg">
<rect width="72" height="20" fill="#F0F0F0"/>
<path d="M23.5933 7.50852V6.72727H29.0479V7.50852H26.7609V14H25.8802V7.50852H23.5933ZM31.7893 14.1136C31.2638 14.1136 30.8104 13.9976 30.4292 13.7656C30.0505 13.5312 29.7581 13.2045 29.5521 12.7855C29.3485 12.3641 29.2467 11.8741 29.2467 11.3153C29.2467 10.7566 29.3485 10.2642 29.5521 9.83807C29.7581 9.40956 30.0445 9.07576 30.4115 8.83665C30.7808 8.59517 31.2117 8.47443 31.7041 8.47443C31.9882 8.47443 32.2687 8.52178 32.5457 8.61648C32.8227 8.71117 33.0748 8.86506 33.3021 9.07812C33.5294 9.28883 33.7105 9.56818 33.8454 9.91619C33.9804 10.2642 34.0479 10.6927 34.0479 11.2017V11.5568H29.8433V10.8324H33.1956C33.1956 10.5246 33.134 10.25 33.0109 10.0085C32.8902 9.76705 32.7174 9.57647 32.4925 9.43679C32.2699 9.29711 32.0071 9.22727 31.7041 9.22727C31.3703 9.22727 31.0815 9.31013 30.8376 9.47585C30.5961 9.6392 30.4103 9.85227 30.2801 10.1151C30.1499 10.3778 30.0848 10.6596 30.0848 10.9602V11.4432C30.0848 11.8551 30.1558 12.2043 30.2979 12.4908C30.4423 12.7749 30.6423 12.9915 30.898 13.1406C31.1537 13.2874 31.4508 13.3608 31.7893 13.3608C32.0095 13.3608 32.2084 13.33 32.3859 13.2685C32.5658 13.2045 32.7209 13.1098 32.8511 12.9844C32.9813 12.8565 33.0819 12.6979 33.153 12.5085L33.9626 12.7358C33.8774 13.0104 33.7342 13.2519 33.5329 13.4602C33.3317 13.6662 33.0831 13.8272 32.7872 13.9432C32.4913 14.0568 32.1586 14.1136 31.7893 14.1136ZM36.1608 6.72727V14H35.3227V6.72727H36.1608ZM39.9827 14.1136C39.4571 14.1136 39.0038 13.9976 38.6226 13.7656C38.2438 13.5312 37.9514 13.2045 37.7455 12.7855C37.5419 12.3641 37.4401 11.8741 37.4401 11.3153C37.4401 10.7566 37.5419 10.2642 37.7455 9.83807C37.9514 9.40956 38.2379 9.07576 38.6048 8.83665C38.9742 8.59517 39.405 8.47443 39.8975 8.47443C40.1816 8.47443 40.4621 8.52178 40.7391 8.61648C41.0161 8.71117 41.2682 8.86506 41.4955 9.07812C41.7227 9.28883 41.9039 9.56818 42.0388 9.91619C42.1737 10.2642 42.2412 10.6927 42.2412 11.2017V11.5568H38.0367V10.8324H41.3889C41.3889 10.5246 41.3274 10.25 41.2043 10.0085C41.0835 9.76705 40.9107 9.57647 40.6858 9.43679C40.4633 9.29711 40.2005 9.22727 39.8975 9.22727C39.5637 9.22727 39.2748 9.31013 39.031 9.47585C38.7895 9.6392 38.6037 9.85227 38.4735 10.1151C38.3432 10.3778 38.2781 10.6596 38.2781 10.9602V11.4432C38.2781 11.8551 38.3492 12.2043 38.4912 12.4908C38.6356 12.7749 38.8357 12.9915 39.0914 13.1406C39.347 13.2874 39.6441 13.3608 39.9827 13.3608C40.2029 13.3608 40.4017 13.33 40.5793 13.2685C40.7592 13.2045 40.9143 13.1098 41.0445 12.9844C41.1747 12.8565 41.2753 12.6979 41.3463 12.5085L42.156 12.7358C42.0708 13.0104 41.9275 13.2519 41.7263 13.4602C41.5251 13.6662 41.2765 13.8272 40.9806 13.9432C40.6846 14.0568 40.352 14.1136 39.9827 14.1136ZM45.7178 16.1591C45.3129 16.1591 44.9649 16.107 44.6737 16.0028C44.3825 15.901 44.1399 15.7661 43.9458 15.598C43.754 15.4323 43.6013 15.2547 43.4877 15.0653L44.1553 14.5966C44.231 14.696 44.3269 14.8097 44.4429 14.9375C44.5589 15.0677 44.7175 15.1802 44.9188 15.2749C45.1224 15.3719 45.3887 15.4205 45.7178 15.4205C46.1581 15.4205 46.5215 15.3139 46.808 15.1009C47.0944 14.8878 47.2377 14.554 47.2377 14.0994V12.9915H47.1666C47.1051 13.0909 47.0175 13.214 46.9039 13.3608C46.7926 13.5052 46.6316 13.6342 46.4209 13.7479C46.2126 13.8591 45.9308 13.9148 45.5757 13.9148C45.1354 13.9148 44.74 13.8106 44.3896 13.6023C44.0416 13.3939 43.7658 13.0909 43.5622 12.6932C43.361 12.2955 43.2604 11.8125 43.2604 11.2443C43.2604 10.6856 43.3586 10.1991 43.5551 9.7848C43.7516 9.36813 44.0251 9.04616 44.3754 8.81889C44.7258 8.58925 45.1307 8.47443 45.5899 8.47443C45.945 8.47443 46.2268 8.53362 46.4351 8.65199C46.6458 8.76799 46.8068 8.90057 46.9181 9.04972C47.0317 9.1965 47.1193 9.31723 47.1808 9.41193H47.2661V8.54545H48.0757V14.1562C48.0757 14.625 47.9692 15.0062 47.7561 15.2997C47.5454 15.5956 47.2613 15.8123 46.9039 15.9496C46.5487 16.0893 46.1534 16.1591 45.7178 16.1591ZM45.6894 13.1619C46.0255 13.1619 46.3096 13.085 46.5416 12.9311C46.7736 12.7772 46.95 12.5559 47.0708 12.267C47.1915 11.9782 47.2519 11.6326 47.2519 11.2301C47.2519 10.8371 47.1927 10.4903 47.0743 10.1896C46.9559 9.88897 46.7807 9.65341 46.5487 9.48295C46.3167 9.3125 46.0303 9.22727 45.6894 9.22727C45.3343 9.22727 45.0383 9.31723 44.8016 9.49716C44.5672 9.67708 44.3908 9.91856 44.2725 10.2216C44.1565 10.5246 44.0985 10.8608 44.0985 11.2301C44.0985 11.6089 44.1576 11.9439 44.276 12.2351C44.3968 12.5239 44.5743 12.7512 44.8087 12.9169C45.0454 13.0803 45.339 13.1619 45.6894 13.1619ZM49.6098 14V8.54545H50.4195V9.36932H50.4763C50.5757 9.09943 50.7557 8.88045 51.0161 8.71236C51.2765 8.54427 51.57 8.46023 51.8968 8.46023C51.9583 8.46023 52.0352 8.46141 52.1276 8.46378C52.2199 8.46615 52.2897 8.4697 52.3371 8.47443V9.3267C52.3087 9.3196 52.2436 9.30895 52.1418 9.29474C52.0423 9.27817 51.937 9.26989 51.8257 9.26989C51.5606 9.26989 51.3238 9.32552 51.1155 9.43679C50.9095 9.54569 50.7462 9.69721 50.6254 9.89134C50.5071 10.0831 50.4479 10.3021 50.4479 10.5483V14H49.6098ZM54.9356 14.1278C54.59 14.1278 54.2763 14.0627 53.9946 13.9325C53.7129 13.8 53.4891 13.6094 53.3234 13.3608C53.1577 13.1098 53.0748 12.8068 53.0748 12.4517C53.0748 12.1392 53.1364 11.8859 53.2595 11.6918C53.3826 11.4953 53.5471 11.3414 53.7531 11.2301C53.9591 11.1188 54.1863 11.036 54.4349 10.9815C54.6859 10.9247 54.938 10.8797 55.1913 10.8466C55.5228 10.804 55.7915 10.772 55.9974 10.7507C56.2058 10.727 56.3573 10.688 56.452 10.6335C56.549 10.5791 56.5976 10.4844 56.5976 10.3494V10.321C56.5976 9.97064 56.5017 9.69839 56.3099 9.50426C56.1205 9.31013 55.8329 9.21307 55.447 9.21307C55.0469 9.21307 54.7332 9.30066 54.5059 9.47585C54.2787 9.65104 54.1189 9.83807 54.0265 10.0369L53.2311 9.75284C53.3731 9.4214 53.5625 9.16335 53.7993 8.97869C54.0384 8.79167 54.2988 8.66146 54.5805 8.58807C54.8646 8.51231 55.144 8.47443 55.4186 8.47443C55.5938 8.47443 55.795 8.49574 56.0223 8.53835C56.2519 8.5786 56.4733 8.66264 56.6863 8.79048C56.9018 8.91832 57.0805 9.11127 57.2226 9.36932C57.3646 9.62737 57.4356 9.97301 57.4356 10.4062V14H56.5976V13.2614H56.555C56.4981 13.3797 56.4034 13.5064 56.2709 13.6413C56.1383 13.7763 55.9619 13.8911 55.7417 13.9858C55.5216 14.0805 55.2529 14.1278 54.9356 14.1278ZM55.0635 13.375C55.3949 13.375 55.6743 13.3099 55.9015 13.1797C56.1312 13.0495 56.304 12.8814 56.42 12.6754C56.5384 12.4695 56.5976 12.2528 56.5976 12.0256V11.2585C56.5621 11.3011 56.4839 11.3402 56.3632 11.3757C56.2448 11.4089 56.1075 11.4384 55.9513 11.4645C55.7974 11.4882 55.647 11.5095 55.5003 11.5284C55.3559 11.545 55.2387 11.5592 55.1487 11.571C54.9309 11.5994 54.7273 11.6456 54.5379 11.7095C54.3509 11.7711 54.1994 11.8646 54.0834 11.9901C53.9697 12.1132 53.9129 12.2812 53.9129 12.4943C53.9129 12.7855 54.0206 13.0057 54.2361 13.1548C54.4539 13.3016 54.7297 13.375 55.0635 13.375ZM58.9653 14V8.54545H59.7749V9.39773H59.846C59.9596 9.10653 60.1431 8.88045 60.3964 8.71946C60.6497 8.55611 60.9539 8.47443 61.309 8.47443C61.6689 8.47443 61.9684 8.55611 62.2075 8.71946C62.449 8.88045 62.6372 9.10653 62.7721 9.39773H62.8289C62.9686 9.116 63.1781 8.89228 63.4575 8.72656C63.7368 8.55848 64.0718 8.47443 64.4624 8.47443C64.9501 8.47443 65.349 8.62713 65.6592 8.93253C65.9693 9.23556 66.1244 9.70786 66.1244 10.3494V14H65.2863V10.3494C65.2863 9.94697 65.1762 9.65933 64.9561 9.48651C64.7359 9.31368 64.4767 9.22727 64.1784 9.22727C63.7948 9.22727 63.4977 9.34328 63.287 9.57528C63.0763 9.80492 62.971 10.0961 62.971 10.4489V14H62.1187V10.2642C62.1187 9.95407 62.0181 9.70431 61.8169 9.51491C61.6156 9.32315 61.3564 9.22727 61.0392 9.22727C60.8213 9.22727 60.6177 9.28527 60.4284 9.40128C60.2413 9.51728 60.0898 9.67827 59.9738 9.88423C59.8602 10.0878 59.8034 10.3234 59.8034 10.5909V14H58.9653Z" fill="black"/>
<path fill-rule="evenodd" clip-rule="evenodd" d="M17 16H5V4H17V16ZM13.128 13.426C13.2355 13.5025 13.3735 13.5215 13.497 13.4745C13.62 13.428 13.711 13.3225 13.7385 13.1945C14.028 11.8335 14.731 8.3875 14.9945 7.1495C15.014 7.056 14.981 6.959 14.908 6.8965C14.8345 6.8345 14.7325 6.8165 14.642 6.85C13.2445 7.367 8.94 8.982 7.1805 9.6335C7.069 9.6745 6.9965 9.782 7 9.9C7.004 10.0175 7.0835 10.12 7.1975 10.1545C7.9865 10.39 9.0225 10.7185 9.0225 10.7185C9.0225 10.7185 9.506 12.1805 9.7585 12.9235C9.79 13.017 9.8635 13.0905 9.9595 13.1155C10.056 13.1405 10.158 13.1145 10.23 13.0465C10.6355 12.664 11.262 12.0725 11.262 12.0725C11.262 12.0725 12.4525 12.9455 13.128 13.426V13.426ZM9.458 10.534L10.0175 12.38L10.142 11.211C10.142 11.211 12.304 9.261 13.537 8.149C13.573 8.1165 13.578 8.062 13.548 8.0235C13.518 7.985 13.4635 7.976 13.4225 8.002C11.994 8.9145 9.458 10.534 9.458 10.534V10.534Z" fill="#0088CC"/>
</svg>
