<svg width="72" height="20" viewBox="0 0 72 20" fill="none" xmlns="http://www.w3.org/2000/svg">
<rect width="72" height="20" fill="#F0F0F0"/>
<path d="M25.2225 14V6.72727H26.1032V13.2188H29.4838V14H25.2225ZM30.7338 14V8.54545H31.5719V14H30.7338ZM31.16 7.63636C30.9966 7.63636 30.8558 7.58073 30.7374 7.46946C30.6214 7.35819 30.5634 7.22443 30.5634 7.06818C30.5634 6.91193 30.6214 6.77817 30.7374 6.6669C30.8558 6.55563 30.9966 6.5 31.16 6.5C31.3233 6.5 31.463 6.55563 31.579 6.6669C31.6974 6.77817 31.7566 6.91193 31.7566 7.06818C31.7566 7.22443 31.6974 7.35819 31.579 7.46946C31.463 7.58073 31.3233 7.63636 31.16 7.63636ZM33.945 10.7188V14H33.1069V8.54545H33.9165V9.39773H33.9876C34.1154 9.12074 34.3095 8.8982 34.57 8.73011C34.8304 8.55966 35.1665 8.47443 35.5785 8.47443C35.9478 8.47443 36.271 8.55019 36.5479 8.7017C36.8249 8.85085 37.0404 9.07812 37.1942 9.38352C37.3481 9.68655 37.4251 10.0701 37.4251 10.5341V14H36.587V10.5909C36.587 10.1624 36.4757 9.8286 36.2532 9.58949C36.0307 9.34801 35.7253 9.22727 35.337 9.22727C35.0695 9.22727 34.8304 9.28527 34.6197 9.40128C34.4113 9.51728 34.2468 9.68655 34.1261 9.90909C34.0053 10.1316 33.945 10.4015 33.945 10.7188ZM39.7377 12.0114L39.7235 10.9744H39.894L42.2804 8.54545H43.3173L40.7747 11.1165H40.7037L39.7377 12.0114ZM38.9565 14V6.72727H39.7946V14H38.9565ZM42.4224 14L40.2917 11.3011L40.8883 10.7188L43.4877 14H42.4224ZM46.4583 14.1136C45.9327 14.1136 45.4793 13.9976 45.0982 13.7656C44.7194 13.5312 44.427 13.2045 44.2211 12.7855C44.0175 12.3641 43.9157 11.8741 43.9157 11.3153C43.9157 10.7566 44.0175 10.2642 44.2211 9.83807C44.427 9.40956 44.7135 9.07576 45.0804 8.83665C45.4498 8.59517 45.8806 8.47443 46.373 8.47443C46.6571 8.47443 46.9377 8.52178 47.2147 8.61648C47.4917 8.71117 47.7438 8.86506 47.9711 9.07812C48.1983 9.28883 48.3794 9.56818 48.5144 9.91619C48.6493 10.2642 48.7168 10.6927 48.7168 11.2017V11.5568H44.5123V10.8324H47.8645C47.8645 10.5246 47.803 10.25 47.6799 10.0085C47.5591 9.76705 47.3863 9.57647 47.1614 9.43679C46.9389 9.29711 46.6761 9.22727 46.373 9.22727C46.0392 9.22727 45.7504 9.31013 45.5066 9.47585C45.2651 9.6392 45.0792 9.85227 44.949 10.1151C44.8188 10.3778 44.7537 10.6596 44.7537 10.9602V11.4432C44.7537 11.8551 44.8248 12.2043 44.9668 12.4908C45.1112 12.7749 45.3113 12.9915 45.5669 13.1406C45.8226 13.2874 46.1197 13.3608 46.4583 13.3608C46.6784 13.3608 46.8773 13.33 47.0549 13.2685C47.2348 13.2045 47.3899 13.1098 47.5201 12.9844C47.6503 12.8565 47.7509 12.6979 47.8219 12.5085L48.6316 12.7358C48.5463 13.0104 48.4031 13.2519 48.2019 13.4602C48.0007 13.6662 47.7521 13.8272 47.4561 13.9432C47.1602 14.0568 46.8276 14.1136 46.4583 14.1136ZM52.0513 14.1136C51.5968 14.1136 51.1955 13.9988 50.8475 13.7692C50.4995 13.5372 50.2272 13.2105 50.0307 12.7891C49.8342 12.3653 49.736 11.8646 49.736 11.2869C49.736 10.714 49.8342 10.2169 50.0307 9.79545C50.2272 9.37405 50.5007 9.04853 50.851 8.81889C51.2014 8.58925 51.6062 8.47443 52.0655 8.47443C52.4206 8.47443 52.7012 8.53362 52.9071 8.65199C53.1155 8.76799 53.2741 8.90057 53.383 9.04972C53.4943 9.1965 53.5807 9.31723 53.6422 9.41193H53.7132V6.72727H54.5513V14H53.7417V13.1619H53.6422C53.5807 13.2614 53.4931 13.3868 53.3794 13.5384C53.2658 13.6875 53.1036 13.8213 52.8929 13.9396C52.6822 14.0556 52.4017 14.1136 52.0513 14.1136ZM52.165 13.3608C52.5011 13.3608 52.7852 13.2732 53.0172 13.098C53.2492 12.9205 53.4256 12.6754 53.5463 12.3629C53.6671 12.0481 53.7275 11.6847 53.7275 11.2727C53.7275 10.8655 53.6683 10.5092 53.5499 10.2038C53.4315 9.89607 53.2563 9.65696 53.0243 9.48651C52.7923 9.31368 52.5059 9.22727 52.165 9.22727C51.8098 9.22727 51.5139 9.31842 51.2772 9.50071C51.0428 9.68063 50.8664 9.92566 50.748 10.2358C50.632 10.5436 50.574 10.8892 50.574 11.2727C50.574 11.661 50.6332 12.0137 50.7516 12.331C50.8723 12.6458 51.0499 12.8968 51.2843 13.0838C51.521 13.2685 51.8146 13.3608 52.165 13.3608ZM56.2026 14V8.54545H57.0407V14H56.2026ZM56.6287 7.63636C56.4654 7.63636 56.3245 7.58073 56.2061 7.46946C56.0901 7.35819 56.0321 7.22443 56.0321 7.06818C56.0321 6.91193 56.0901 6.77817 56.2061 6.6669C56.3245 6.55563 56.4654 6.5 56.6287 6.5C56.7921 6.5 56.9318 6.55563 57.0478 6.6669C57.1661 6.77817 57.2253 6.91193 57.2253 7.06818C57.2253 7.22443 57.1661 7.35819 57.0478 7.46946C56.9318 7.58073 56.7921 7.63636 56.6287 7.63636ZM59.4137 10.7188V14H58.5756V8.54545H59.3853V9.39773H59.4563C59.5842 9.12074 59.7783 8.8982 60.0387 8.73011C60.2991 8.55966 60.6353 8.47443 61.0472 8.47443C61.4165 8.47443 61.7397 8.55019 62.0167 8.7017C62.2937 8.85085 62.5091 9.07812 62.663 9.38352C62.8169 9.68655 62.8938 10.0701 62.8938 10.5341V14H62.0558V10.5909C62.0558 10.1624 61.9445 9.8286 61.7219 9.58949C61.4994 9.34801 61.194 9.22727 60.8058 9.22727C60.5382 9.22727 60.2991 9.28527 60.0884 9.40128C59.8801 9.51728 59.7156 9.68655 59.5948 9.90909C59.4741 10.1316 59.4137 10.4015 59.4137 10.7188Z" fill="black"/>
<path d="M5 4V16H17V4H5ZM9 13.5H7.5V8H9V13.5ZM8.25 7.366C7.767 7.366 7.375 6.971 7.375 6.484C7.375 5.997 7.767 5.602 8.25 5.602C8.733 5.602 9.125 5.997 9.125 6.484C9.125 6.971 8.7335 7.366 8.25 7.366ZM15 13.5H13.5V10.698C13.5 9.014 11.5 9.1415 11.5 10.698V13.5H10V8H11.5V8.8825C12.1985 7.5895 15 7.494 15 10.1205V13.5Z" fill="#0077B5"/>
</svg>
